<?xml version="1.0" encoding="utf-8"?>
<?xml-stylesheet type="text/xsl" href="rss1.xsl"?>
<rss version="2.0" xmlns:atom="http://www.w3.org/2005/Atom" xmlns:content="http://purl.org/rss/1.0/modules/content/" xmlns:dc="http://purl.org/dc/elements/1.1/" xmlns:media="http://search.yahoo.com/mrss/">
<channel>
 <title>Getty</title>
 <link>http://www.gettyimg.com/</link>
 <atom:link href="http://www.gettyimg.com/" rel="self" type="application/rss+xml" />

 
                <item>
                <title><![CDATA[【HD Live Performances】FEED - Eurovision 2023 - Semi-Final 2 FEED HDTV H264 422 1080i MP2&amp;DolbyE-ilya2129]]></title>
                <link><![CDATA[https://sharemania.us/threads/eurovision-2023-semi-final-2-feed-hdtv-h264-422-1080i-mp2-dolbye-ilya2129.220828/]]></link>
                <description><![CDATA[<article>
<blockquote class="messageText SelectQuoteContainer ugc baseHtml">
<div style="text-align: center"><img src="https://i121.fastpic.org/big/2023/0509/bb/73ee3f767336da1edfa53959707b57bb.png?r=1" class="bbCodeImage LbImage" alt="[​IMG]" data-url="https://i121.fastpic.org/big/2023/0509/bb/73ee3f767336da1edfa53959707b57bb.png?r=1" style=""><br>
<br>
<a href="https://postimg.cc/Z0VDJ5DZ" target="_blank" class="externalLink" rel="nofollow"><img src="https://i.postimg.cc/Z0VDJ5DZ/vlcsnap-2023-05-13-11h57m19s166.png" class="bbCodeImage LbImage" alt="[​IMG]" data-url="https://i.postimg.cc/Z0VDJ5DZ/vlcsnap-2023-05-13-11h57m19s166.png"></a> <a href="https://postimg.cc/YG882dR8" target="_blank" class="externalLink" rel="nofollow"><img src="https://i.postimg.cc/YG882dR8/vlcsnap-2023-05-13-11h57m23s166.png" class="bbCodeImage LbImage" alt="[​IMG]" data-url="https://i.postimg.cc/YG882dR8/vlcsnap-2023-05-13-11h57m23s166.png"></a> <a href="https://postimg.cc/v1r3kY6J" target="_blank" class="externalLink" rel="nofollow"><img src="https://i.postimg.cc/v1r3kY6J/vlcsnap-2023-05-13-11h57m28s409.png" class="bbCodeImage LbImage" alt="[​IMG]" data-url="https://i.postimg.cc/v1r3kY6J/vlcsnap-2023-05-13-11h57m28s409.png"></a> <a href="https://postimg.cc/qtV11hgc" target="_blank" class="externalLink" rel="nofollow"><img src="https://i.postimg.cc/qtV11hgc/vlcsnap-2023-05-13-11h57m30s991.png" class="bbCodeImage LbImage" alt="[​IMG]" data-url="https://i.postimg.cc/qtV11hgc/vlcsnap-2023-05-13-11h57m30s991.png"></a> <a href="https://postimg.cc/ZBJVhG8C" target="_blank" class="externalLink" rel="nofollow"><img src="https://i.postimg.cc/ZBJVhG8C/vlcsnap-2023-05-13-11h57m32s955.png" class="bbCodeImage LbImage" alt="[​IMG]" data-url="https://i.postimg.cc/ZBJVhG8C/vlcsnap-2023-05-13-11h57m32s955.png"></a> <a href="https://postimg.cc/jDJ86Qqd" target="_blank" class="externalLink" rel="nofollow"><img src="https://i.postimg.cc/jDJ86Qqd/vlcsnap-2023-05-13-11h57m34s479.png" class="bbCodeImage LbImage" alt="[​IMG]" data-url="https://i.postimg.cc/jDJ86Qqd/vlcsnap-2023-05-13-11h57m34s479.png"></a> <br>
<br>
​</div><br>
<div class="bbCodeBlock bbCodeCode">
<div class="type">Code:</div>
<pre>General
ID                                       : 1 (0x1)
Complete name                            : D:\Eurovision 2023 - Semi-Final 2 FEED HDTV H264 422 1080i MP2&amp;DolbyE-ilya2129.ts
Format                                   : MPEG-TS
File size                                : 37.1 GiB
Duration                                 : 2 h 11 min
Overall bit rate mode                    : Variable
Overall bit rate                         : 40.3 Mb/s
Frame rate                               : 25.000 FPS

Video
ID                                       : 256 (0x100)
Menu ID                                  : 1 (0x1)
Format                                   : AVC
Format/Info                              : Advanced Video Codec
Format profile                           : High 4:2:2@L4
Format settings                          : 3 Ref Frames
Format settings, CABAC                   : No
Format settings, Reference frames        : 3 frames
Format settings, GOP                     : M=3, N=15
Codec ID                                 : 27
Duration                                 : 2 h 11 min
Bit rate mode                            : Variable
Bit rate                                 : 35.2 Mb/s
Maximum bit rate                         : 36.9 Mb/s
Width                                    : 1 920 pixels
Height                                   : 1 080 pixels
Display aspect ratio                     : 16:9
Frame rate                               : 25.000 FPS
Color space                              : YUV
Chroma subsampling                       : 4:2:2
Bit depth                                : 8 bits
Scan type                                : Interlaced
Scan type, store method                  : Separated fields
Scan order                               : Top Field First
Bits/(Pixel*Frame)                       : 0.679
Stream size                              : 32.4 GiB (87%)
Color range                              : Limited
Color primaries                          : BT.709
Transfer characteristics                 : BT.709
Matrix coefficients                      : BT.709

Audio #1
ID                                       : 257 (0x101)
Menu ID                                  : 1 (0x1)
Format                                   : MPEG Audio
Format version                           : Version 1
Format profile                           : Layer 2
Format settings                          : Dual mono
Codec ID                                 : 3
Duration                                 : 2 h 11 min
Bit rate mode                            : Constant
Bit rate                                 : 384 kb/s
Channel(s)                               : 2 channels
Sampling rate                            : 48.0 kHz
Frame rate                               : 41.667 FPS (1152 SPF)
Compression mode                         : Lossy
Delay relative to video                  : -597 ms
Stream size                              : 362 MiB (1%)

Audio #2
ID                                       : 258 (0x102)
Menu ID                                  : 1 (0x1)
Format                                   : MPEG Audio
Format version                           : Version 1
Format profile                           : Layer 2
Format settings                          : Dual mono
Codec ID                                 : 3
Duration                                 : 2 h 11 min
Bit rate mode                            : Constant
Bit rate                                 : 384 kb/s
Channel(s)                               : 2 channels
Sampling rate                            : 48.0 kHz
Frame rate                               : 41.667 FPS (1152 SPF)
Compression mode                         : Lossy
Delay relative to video                  : -597 ms
Stream size                              : 362 MiB (1%)

Audio #3
ID                                       : 259 (0x103)-1
Menu ID                                  : 1 (0x1)
Format                                   : Dolby E
Format settings                          : Little
Muxing mode                              : SMPTE ST 302 / SMPTE ST 337
Codec ID                                 : 6
Duration                                 : 2 h 11 min
Bit rate mode                            : Constant
Bit rate                                 : 1 291 kb/s
Channel(s)                               : 6 channels
Channel layout                           : L C Ls X R LFE Rs X
Sampling rate                            : 48.0 kHz
Frame rate                               : 25.000 FPS (1920 SPF)
Bit depth                                : 20 bits
Delay relative to video                  : -591 ms
Stream size                              : 1.19 GiB (3%)
Title                                    : ESC 2023

Audio #4
ID                                       : 259 (0x103)-2
Menu ID                                  : 1 (0x1)
Format                                   : Dolby E
Format settings                          : Little
Muxing mode                              : SMPTE ST 302 / SMPTE ST 337
Codec ID                                 : 6
Duration                                 : 2 h 11 min
Bit rate mode                            : Constant
Bit rate                                 : 505 kb/s
Channel(s)                               : 2 channels
Channel layout                           : X X X L X X X R
Sampling rate                            : 48.0 kHz
Frame rate                               : 25.000 FPS (1920 SPF)
Bit depth                                : 20 bits
Delay relative to video                  : -591 ms
Stream size                              : 476 MiB (1%)
Title                                    : NEP UHD1 2.0

Menu
ID                                       : 4096 (0x1000)
Menu ID                                  : 1 (0x1)
Format                                   : AVC / MPEG Audio / MPEG Audio / Dolby E
Duration                                 : 2 h 11 min
List                                     : 256 (0x100) (AVC) / 257 (0x101) (MPEG Audio) / 258 (0x102) (MPEG Audio) / 259 (0x103) (Dolby E)
Service name                             : Service01
Service provider                         : FFmpeg
Service type                             : digital television


</pre>
</div><div style="text-align: center"><br>
MAGNET ONLY<br>
<div class="bbCodeBlock bbCodeVfcHH HiddenContent">
<div class="attribution type">Hidden Content:</div>
<blockquote>You must either reply or click 'Like' to see the hidden information contained here.</blockquote>
</div></div>
<div class="messageTextEndMarker">&nbsp;</div>
</blockquote>
</article>]]></description>
                <author><![CDATA[ilya2129]]></author>
                </item>

                
                <item>
                <title><![CDATA[【HD Live Performances】FEED - Eurovision 2023 - Semi-Final 1 FEED HDTV H264 422 1080i MP2&amp;DolbyE-J Silver]]></title>
                <link><![CDATA[https://sharemania.us/threads/eurovision-2023-semi-final-1-feed-hdtv-h264-422-1080i-mp2-dolbye-j-silver.220827/]]></link>
                <description><![CDATA[<article>
<blockquote class="messageText SelectQuoteContainer ugc baseHtml">
<div style="text-align: center"><img src="https://i121.fastpic.org/big/2023/0509/bb/73ee3f767336da1edfa53959707b57bb.png?r=1" class="bbCodeImage LbImage" alt="[​IMG]" data-url="https://i121.fastpic.org/big/2023/0509/bb/73ee3f767336da1edfa53959707b57bb.png?r=1" style=""><br>
<br>
<a href="https://postimg.cc/XXFT3W6Y" target="_blank" class="externalLink" rel="nofollow"><img src="https://i.postimg.cc/XXFT3W6Y/vlcsnap-2023-05-13-11h55m42s214.png" class="bbCodeImage LbImage" alt="[​IMG]" data-url="https://i.postimg.cc/XXFT3W6Y/vlcsnap-2023-05-13-11h55m42s214.png"></a> <a href="https://postimg.cc/6yt1XGhM" target="_blank" class="externalLink" rel="nofollow"><img src="https://i.postimg.cc/6yt1XGhM/vlcsnap-2023-05-13-11h55m43s727.png" class="bbCodeImage LbImage" alt="[​IMG]" data-url="https://i.postimg.cc/6yt1XGhM/vlcsnap-2023-05-13-11h55m43s727.png"></a> <a href="https://postimg.cc/y3XQRV7h" target="_blank" class="externalLink" rel="nofollow"><img src="https://i.postimg.cc/y3XQRV7h/vlcsnap-2023-05-13-11h55m45s287.png" class="bbCodeImage LbImage" alt="[​IMG]" data-url="https://i.postimg.cc/y3XQRV7h/vlcsnap-2023-05-13-11h55m45s287.png"></a> <a href="https://postimg.cc/ygRrVm5b" target="_blank" class="externalLink" rel="nofollow"><img src="https://i.postimg.cc/ygRrVm5b/vlcsnap-2023-05-13-11h55m47s492.png" class="bbCodeImage LbImage" alt="[​IMG]" data-url="https://i.postimg.cc/ygRrVm5b/vlcsnap-2023-05-13-11h55m47s492.png"></a> <a href="https://postimg.cc/XB01XZ67" target="_blank" class="externalLink" rel="nofollow"><img src="https://i.postimg.cc/XB01XZ67/vlcsnap-2023-05-13-11h55m49s538.png" class="bbCodeImage LbImage" alt="[​IMG]" data-url="https://i.postimg.cc/XB01XZ67/vlcsnap-2023-05-13-11h55m49s538.png"></a> <a href="https://postimg.cc/4nzFq1pK" target="_blank" class="externalLink" rel="nofollow"><img src="https://i.postimg.cc/4nzFq1pK/vlcsnap-2023-05-13-11h55m51s629.png" class="bbCodeImage LbImage" alt="[​IMG]" data-url="https://i.postimg.cc/4nzFq1pK/vlcsnap-2023-05-13-11h55m51s629.png"></a><br>
<br>
​</div><br>
<div class="bbCodeBlock bbCodeCode">
<div class="type">Code:</div>
<pre>General
ID                                       : 1 (0x1)
Complete name                            : D:\Eurovision 2023\Eurovision 2023 - Semi-Final 1 FEED HDTV H264 422 1080i MP2&amp;DolbyE-J Silver.ts
Format                                   : MPEG-TS
File size                                : 37.3 GiB
Duration                                 : 2 h 12 min
Overall bit rate mode                    : Variable
Overall bit rate                         : 40.4 Mb/s
Frame rate                               : 25.000 FPS

Video
ID                                       : 256 (0x100)
Menu ID                                  : 1 (0x1)
Format                                   : AVC
Format/Info                              : Advanced Video Codec
Format profile                           : High 4:2:2@L4
Format settings                          : 3 Ref Frames
Format settings, CABAC                   : No
Format settings, Reference frames        : 3 frames
Codec ID                                 : 27
Duration                                 : 2 h 12 min
Bit rate mode                            : Variable
Bit rate                                 : 35.3 Mb/s
Maximum bit rate                         : 36.9 Mb/s
Width                                    : 1 920 pixels
Height                                   : 1 080 pixels
Display aspect ratio                     : 16:9
Frame rate                               : 25.000 FPS
Color space                              : YUV
Chroma subsampling                       : 4:2:2
Bit depth                                : 8 bits
Scan type                                : Interlaced
Scan type, store method                  : Separated fields
Scan order                               : Top Field First
Bits/(Pixel*Frame)                       : 0.681
Stream size                              : 32.6 GiB (87%)
Color range                              : Limited
Color primaries                          : BT.709
Transfer characteristics                 : BT.709
Matrix coefficients                      : BT.709

Audio #1
ID                                       : 257 (0x101)
Menu ID                                  : 1 (0x1)
Format                                   : MPEG Audio
Format version                           : Version 1
Format profile                           : Layer 2
Format settings                          : Dual mono
Codec ID                                 : 3
Duration                                 : 2 h 12 min
Bit rate mode                            : Constant
Bit rate                                 : 384 kb/s
Channel(s)                               : 2 channels
Sampling rate                            : 48.0 kHz
Frame rate                               : 41.667 FPS (1152 SPF)
Compression mode                         : Lossy
Delay relative to video                  : -349 ms
Stream size                              : 363 MiB (1%)

Audio #2
ID                                       : 258 (0x102)
Menu ID                                  : 1 (0x1)
Format                                   : MPEG Audio
Format version                           : Version 1
Format profile                           : Layer 2
Format settings                          : Dual mono
Codec ID                                 : 3
Duration                                 : 2 h 12 min
Bit rate mode                            : Constant
Bit rate                                 : 384 kb/s
Channel(s)                               : 2 channels
Sampling rate                            : 48.0 kHz
Frame rate                               : 41.667 FPS (1152 SPF)
Compression mode                         : Lossy
Delay relative to video                  : -349 ms
Stream size                              : 363 MiB (1%)

Audio #3
ID                                       : 259 (0x103)-1
Menu ID                                  : 1 (0x1)
Format                                   : Dolby E
Format settings                          : Little
Muxing mode                              : SMPTE ST 302 / SMPTE ST 337
Codec ID                                 : 6
Duration                                 : 2 h 12 min
Bit rate mode                            : Constant
Bit rate                                 : 1 291 kb/s
Channel(s)                               : 6 channels
Channel layout                           : L C Ls X R LFE Rs X
Sampling rate                            : 48.0 kHz
Frame rate                               : 25.000 FPS (1920 SPF)
Bit depth                                : 20 bits
Delay relative to video                  : -351 ms
Stream size                              : 1.19 GiB (3%)
Title                                    : ESC 2023

Audio #4
ID                                       : 259 (0x103)-2
Menu ID                                  : 1 (0x1)
Format                                   : Dolby E
Format settings                          : Little
Muxing mode                              : SMPTE ST 302 / SMPTE ST 337
Codec ID                                 : 6
Duration                                 : 2 h 12 min
Bit rate mode                            : Constant
Bit rate                                 : 505 kb/s
Channel(s)                               : 2 channels
Channel layout                           : X X X L X X X R
Sampling rate                            : 48.0 kHz
Frame rate                               : 25.000 FPS (1920 SPF)
Bit depth                                : 20 bits
Delay relative to video                  : -351 ms
Stream size                              : 478 MiB (1%)
Title                                    : NEP UHD1 2.0

Menu
ID                                       : 4096 (0x1000)
Menu ID                                  : 1 (0x1)
Format                                   : AVC / MPEG Audio / MPEG Audio / Dolby E
Duration                                 : 2 h 12 min
List                                     : 256 (0x100) (AVC) / 257 (0x101) (MPEG Audio) / 258 (0x102) (MPEG Audio) / 259 (0x103) (Dolby E)

</pre>
</div><div style="text-align: center"><br>
MAGNET ONLY<br>
<div class="bbCodeBlock bbCodeVfcHH HiddenContent">
<div class="attribution type">Hidden Content:</div>
<blockquote>You must either reply or click 'Like' to see the hidden information contained here.</blockquote>
</div></div>
<div class="messageTextEndMarker">&nbsp;</div>
</blockquote>
</article>]]></description>
                <author><![CDATA[ilya2129]]></author>
                </item>

                </channel></rss>